<mxfile host="app.diagrams.net" modified="2021-03-24T05:56:50.540Z" agent="5.0 (Macintosh; Intel Mac OS X 11_0_1) AppleWebKit/537.36 (KHTML, like Gecko) Chrome/89.0.4389.82 Safari/537.36" etag="ddnukkfOftfArYsoPnCf" version="14.4.8" type="github">
  <diagram id="sg7tB17aaq7wur9kiQ06" name="Page-1">
    <mxGraphModel dx="2037" dy="2268" grid="1" gridSize="10" guides="1" tooltips="1" connect="1" arrows="1" fold="1" page="1" pageScale="1" pageWidth="827" pageHeight="1169" math="0" shadow="0">
      <root>
        <mxCell id="0" />
        <mxCell id="1" parent="0" />
        <mxCell id="FWf6aFP_6VqxnxolcwkM-1" value="What data is coming in + in what form" style="rounded=0;whiteSpace=wrap;html=1;" parent="1" vertex="1">
          <mxGeometry x="35" y="-200" width="230" height="60" as="geometry" />
        </mxCell>
        <mxCell id="FWf6aFP_6VqxnxolcwkM-19" style="edgeStyle=orthogonalEdgeStyle;rounded=0;orthogonalLoop=1;jettySize=auto;html=1;exitX=0.5;exitY=1;exitDx=0;exitDy=0;entryX=0.5;entryY=0;entryDx=0;entryDy=0;" parent="1" source="FWf6aFP_6VqxnxolcwkM-3" target="FWf6aFP_6VqxnxolcwkM-7" edge="1">
          <mxGeometry relative="1" as="geometry" />
        </mxCell>
        <mxCell id="FWf6aFP_6VqxnxolcwkM-47" value="Private communication" style="edgeLabel;html=1;align=center;verticalAlign=middle;resizable=0;points=[];" parent="FWf6aFP_6VqxnxolcwkM-19" vertex="1" connectable="0">
          <mxGeometry x="-0.1449" y="-1" relative="1" as="geometry">
            <mxPoint x="1" y="26.76" as="offset" />
          </mxGeometry>
        </mxCell>
        <mxCell id="FWf6aFP_6VqxnxolcwkM-3" value="Frontend" style="rounded=0;whiteSpace=wrap;html=1;" parent="1" vertex="1">
          <mxGeometry x="359" y="112" width="120" height="60" as="geometry" />
        </mxCell>
        <mxCell id="FWf6aFP_6VqxnxolcwkM-28" style="edgeStyle=orthogonalEdgeStyle;rounded=0;orthogonalLoop=1;jettySize=auto;html=1;exitX=1;exitY=0.5;exitDx=0;exitDy=0;entryX=0;entryY=0.5;entryDx=0;entryDy=0;entryPerimeter=0;" parent="1" source="FWf6aFP_6VqxnxolcwkM-4" target="FWf6aFP_6VqxnxolcwkM-23" edge="1">
          <mxGeometry relative="1" as="geometry" />
        </mxCell>
        <mxCell id="FWf6aFP_6VqxnxolcwkM-4" value="Cloud Backend" style="rounded=0;whiteSpace=wrap;html=1;" parent="1" vertex="1">
          <mxGeometry x="320" y="543" width="196" height="60" as="geometry" />
        </mxCell>
        <mxCell id="FWf6aFP_6VqxnxolcwkM-32" style="edgeStyle=orthogonalEdgeStyle;rounded=0;orthogonalLoop=1;jettySize=auto;html=1;exitX=0.5;exitY=1;exitDx=0;exitDy=0;" parent="1" source="FWf6aFP_6VqxnxolcwkM-5" target="FWf6aFP_6VqxnxolcwkM-29" edge="1">
          <mxGeometry relative="1" as="geometry" />
        </mxCell>
        <mxCell id="FWf6aFP_6VqxnxolcwkM-33" style="edgeStyle=orthogonalEdgeStyle;rounded=0;orthogonalLoop=1;jettySize=auto;html=1;exitX=0.5;exitY=1;exitDx=0;exitDy=0;" parent="1" source="FWf6aFP_6VqxnxolcwkM-5" target="FWf6aFP_6VqxnxolcwkM-30" edge="1">
          <mxGeometry relative="1" as="geometry" />
        </mxCell>
        <mxCell id="FWf6aFP_6VqxnxolcwkM-34" value="APIs" style="edgeLabel;html=1;align=center;verticalAlign=middle;resizable=0;points=[];" parent="FWf6aFP_6VqxnxolcwkM-33" vertex="1" connectable="0">
          <mxGeometry x="-0.6825" y="-1" relative="1" as="geometry">
            <mxPoint as="offset" />
          </mxGeometry>
        </mxCell>
        <mxCell id="FWf6aFP_6VqxnxolcwkM-43" style="edgeStyle=orthogonalEdgeStyle;rounded=0;orthogonalLoop=1;jettySize=auto;html=1;exitX=0.5;exitY=1;exitDx=0;exitDy=0;entryX=0.5;entryY=0;entryDx=0;entryDy=0;" parent="1" source="FWf6aFP_6VqxnxolcwkM-5" target="FWf6aFP_6VqxnxolcwkM-42" edge="1">
          <mxGeometry relative="1" as="geometry" />
        </mxCell>
        <mxCell id="FWf6aFP_6VqxnxolcwkM-5" value="(AWS EC2)" style="text;html=1;strokeColor=none;fillColor=none;align=center;verticalAlign=middle;whiteSpace=wrap;rounded=0;" parent="1" vertex="1">
          <mxGeometry x="373" y="583" width="90" height="20" as="geometry" />
        </mxCell>
        <mxCell id="FWf6aFP_6VqxnxolcwkM-12" style="edgeStyle=orthogonalEdgeStyle;rounded=0;orthogonalLoop=1;jettySize=auto;html=1;exitX=0.5;exitY=1;exitDx=0;exitDy=0;" parent="1" source="FWf6aFP_6VqxnxolcwkM-7" target="FWf6aFP_6VqxnxolcwkM-4" edge="1">
          <mxGeometry relative="1" as="geometry" />
        </mxCell>
        <mxCell id="FWf6aFP_6VqxnxolcwkM-25" style="edgeStyle=orthogonalEdgeStyle;rounded=0;orthogonalLoop=1;jettySize=auto;html=1;exitX=0;exitY=0.5;exitDx=0;exitDy=0;entryX=1;entryY=0.5;entryDx=0;entryDy=0;entryPerimeter=0;" parent="1" source="FWf6aFP_6VqxnxolcwkM-7" target="FWf6aFP_6VqxnxolcwkM-20" edge="1">
          <mxGeometry relative="1" as="geometry" />
        </mxCell>
        <mxCell id="FWf6aFP_6VqxnxolcwkM-7" value="Requester&lt;br&gt;Client Backend" style="rounded=0;whiteSpace=wrap;html=1;" parent="1" vertex="1">
          <mxGeometry x="359" y="332" width="120" height="60" as="geometry" />
        </mxCell>
        <mxCell id="FWf6aFP_6VqxnxolcwkM-20" value="ID&lt;br&gt;Hashed master key&lt;br&gt;Blinded values O(x)" style="shape=cylinder3;whiteSpace=wrap;html=1;boundedLbl=1;backgroundOutline=1;size=15;" parent="1" vertex="1">
          <mxGeometry x="154" y="267" width="115.01" height="190" as="geometry" />
        </mxCell>
        <mxCell id="FWf6aFP_6VqxnxolcwkM-23" value="- O(x)&lt;br&gt;- PRF parameters&lt;br&gt;- hash function&lt;br&gt;- Prime number in the finite field&lt;br&gt;- Vector X (distinct elements for interpolation)&lt;br&gt;- Num bins and bin capacity" style="shape=cylinder3;whiteSpace=wrap;html=1;boundedLbl=1;backgroundOutline=1;size=15;" parent="1" vertex="1">
          <mxGeometry x="600.25" y="484.25" width="210" height="175" as="geometry" />
        </mxCell>
        <mxCell id="FWf6aFP_6VqxnxolcwkM-24" value="Reason for using hashed master key" style="rounded=0;whiteSpace=wrap;html=1;" parent="1" vertex="1">
          <mxGeometry x="320" y="-200" width="230" height="60" as="geometry" />
        </mxCell>
        <mxCell id="FWf6aFP_6VqxnxolcwkM-29" value="- Get cloud parameters&lt;br&gt;- Init client&lt;br&gt;- Update Client vectors" style="rounded=0;whiteSpace=wrap;html=1;fillColor=#e1d5e7;strokeColor=#9673a6;" parent="1" vertex="1">
          <mxGeometry x="70" y="770" width="167" height="70" as="geometry" />
        </mxCell>
        <mxCell id="FWf6aFP_6VqxnxolcwkM-30" value="- resultsComputation: (requestee q, requester ID)" style="rounded=0;whiteSpace=wrap;html=1;fillColor=#e1d5e7;strokeColor=#9673a6;" parent="1" vertex="1">
          <mxGeometry x="263" y="770" width="307" height="70" as="geometry" />
        </mxCell>
        <mxCell id="FWf6aFP_6VqxnxolcwkM-31" value="- initClient(attributes, master key)&amp;nbsp;&lt;br&gt;- initiatePSI(requestee ID)" style="rounded=0;whiteSpace=wrap;html=1;" parent="1" vertex="1">
          <mxGeometry x="496" y="332" width="192" height="70" as="geometry" />
        </mxCell>
        <mxCell id="FWf6aFP_6VqxnxolcwkM-35" value="&lt;b&gt;&lt;u&gt;From frontend&lt;/u&gt;&lt;/b&gt;" style="text;html=1;strokeColor=none;fillColor=none;align=center;verticalAlign=middle;whiteSpace=wrap;rounded=0;" parent="1" vertex="1">
          <mxGeometry x="544.5" y="302" width="95" height="20" as="geometry" />
        </mxCell>
        <mxCell id="FWf6aFP_6VqxnxolcwkM-36" value="- acceptPSIRequest (requester ID)&amp;nbsp;&lt;br&gt;&lt;i&gt;- (private function) computationDelegation(requester ID)&lt;/i&gt;" style="rounded=0;whiteSpace=wrap;html=1;" parent="1" vertex="1">
          <mxGeometry x="1090" y="467" width="192" height="70" as="geometry" />
        </mxCell>
        <mxCell id="FWf6aFP_6VqxnxolcwkM-37" value="&lt;b&gt;&lt;u&gt;From other clients&lt;/u&gt;&lt;/b&gt;" style="text;html=1;strokeColor=none;fillColor=none;align=center;verticalAlign=middle;whiteSpace=wrap;rounded=0;" parent="1" vertex="1">
          <mxGeometry x="1110.25" y="437" width="151.5" height="20" as="geometry" />
        </mxCell>
        <mxCell id="FWf6aFP_6VqxnxolcwkM-38" value="- acceptResults (q&#39;, q&#39;&#39;)" style="rounded=0;whiteSpace=wrap;html=1;" parent="1" vertex="1">
          <mxGeometry x="704" y="332" width="192" height="70" as="geometry" />
        </mxCell>
        <mxCell id="FWf6aFP_6VqxnxolcwkM-39" value="&lt;b&gt;&lt;u&gt;From cloud&lt;/u&gt;&lt;/b&gt;" style="text;html=1;strokeColor=none;fillColor=none;align=center;verticalAlign=middle;whiteSpace=wrap;rounded=0;" parent="1" vertex="1">
          <mxGeometry x="724.25" y="302" width="151.5" height="20" as="geometry" />
        </mxCell>
        <mxCell id="FWf6aFP_6VqxnxolcwkM-46" style="edgeStyle=orthogonalEdgeStyle;rounded=0;orthogonalLoop=1;jettySize=auto;html=1;exitX=0.5;exitY=1;exitDx=0;exitDy=0;entryX=0.5;entryY=0;entryDx=0;entryDy=0;" parent="1" source="FWf6aFP_6VqxnxolcwkM-40" target="FWf6aFP_6VqxnxolcwkM-37" edge="1">
          <mxGeometry relative="1" as="geometry" />
        </mxCell>
        <mxCell id="FWf6aFP_6VqxnxolcwkM-40" value="Requestee&lt;br&gt;Client Backend" style="rounded=0;whiteSpace=wrap;html=1;" parent="1" vertex="1">
          <mxGeometry x="1126" y="327" width="120" height="60" as="geometry" />
        </mxCell>
        <mxCell id="FWf6aFP_6VqxnxolcwkM-41" value="- ID -&amp;gt; IP addresses mapping" style="shape=cylinder3;whiteSpace=wrap;html=1;boundedLbl=1;backgroundOutline=1;size=15;" parent="1" vertex="1">
          <mxGeometry x="860.25" y="484.25" width="130" height="177.5" as="geometry" />
        </mxCell>
        <mxCell id="FWf6aFP_6VqxnxolcwkM-42" value="- getIPAddressesFromID(ID)" style="rounded=0;whiteSpace=wrap;html=1;fillColor=#e1d5e7;strokeColor=#9673a6;" parent="1" vertex="1">
          <mxGeometry x="580" y="770" width="307" height="70" as="geometry" />
        </mxCell>
        <mxCell id="FWf6aFP_6VqxnxolcwkM-45" style="edgeStyle=orthogonalEdgeStyle;rounded=0;orthogonalLoop=1;jettySize=auto;html=1;exitX=0.5;exitY=1;exitDx=0;exitDy=0;" parent="1" source="FWf6aFP_6VqxnxolcwkM-44" target="FWf6aFP_6VqxnxolcwkM-40" edge="1">
          <mxGeometry relative="1" as="geometry" />
        </mxCell>
        <mxCell id="FWf6aFP_6VqxnxolcwkM-44" value="Frontend" style="rounded=0;whiteSpace=wrap;html=1;" parent="1" vertex="1">
          <mxGeometry x="1126" y="197" width="120" height="60" as="geometry" />
        </mxCell>
        <mxCell id="FWf6aFP_6VqxnxolcwkM-48" value="TODOS:&amp;nbsp;&lt;br&gt;- Set up application architechture&lt;br&gt;- Breakdown api functions&lt;br&gt;" style="rounded=0;whiteSpace=wrap;html=1;" parent="1" vertex="1">
          <mxGeometry x="177" y="1210" width="383" height="380" as="geometry" />
        </mxCell>
        <mxCell id="FWf6aFP_6VqxnxolcwkM-49" value="AWS RDS" style="text;html=1;strokeColor=none;fillColor=none;align=center;verticalAlign=middle;whiteSpace=wrap;rounded=0;" parent="1" vertex="1">
          <mxGeometry x="650.25" y="457" width="130" height="20" as="geometry" />
        </mxCell>
      </root>
    </mxGraphModel>
  </diagram>
</mxfile>
